<svg xmlns="http://www.w3.org/2000/svg" viewBox="0 0 1200 800" role="img" aria-labelledby="heroTitle heroDesc">
  <title id="heroTitle">Professional Electrical Services</title>
  <desc id="heroDesc">Illustration of modern electrical service with technical lines and glowing elements.</desc>
  <defs>
    <linearGradient id="heroBg" x1="0" y1="0" x2="1" y2="1">
      <stop offset="0%" stop-color="#0f2027"/>
      <stop offset="55%" stop-color="#203a43"/>
      <stop offset="100%" stop-color="#2c5364"/>
    </linearGradient>
    <linearGradient id="heroGlow" x1="0" y1="0" x2="1" y2="1">
      <stop offset="0%" stop-color="#00d4ff"/>
      <stop offset="100%" stop-color="#0a74da"/>
    </linearGradient>
  </defs>
  <rect width="1200" height="800" fill="url(#heroBg)"/>
  <circle cx="960" cy="180" r="170" fill="#00d4ff" opacity="0.18"/>
  <circle cx="240" cy="640" r="210" fill="#0a74da" opacity="0.2"/>
  <g opacity="0.4" stroke="#7ed9ff" stroke-width="3" fill="none">
    <path d="M140 210 H420 L500 290 H760"/>
    <path d="M220 310 H520 L590 380 H990"/>
    <path d="M80 420 H360 L450 500 H720"/>
  </g>
  <g transform="translate(620 260)">
    <rect x="0" y="0" width="420" height="290" rx="22" fill="#10212c" stroke="#3da9d7" stroke-width="3"/>
    <rect x="28" y="34" width="360" height="18" rx="9" fill="#254457"/>
    <rect x="28" y="70" width="300" height="18" rx="9" fill="#254457"/>
    <rect x="28" y="122" width="90" height="120" rx="14" fill="url(#heroGlow)" opacity="0.95"/>
    <rect x="136" y="122" width="90" height="120" rx="14" fill="#1f3a4a"/>
    <rect x="244" y="122" width="90" height="120" rx="14" fill="#1f3a4a"/>
    <rect x="352" y="122" width="40" height="120" rx="12" fill="#1f3a4a"/>
  </g>
  <g transform="translate(120 190)">
    <rect x="0" y="0" width="430" height="420" rx="28" fill="#112634" stroke="#3da9d7" stroke-width="3"/>
    <text x="36" y="90" fill="#dff8ff" font-size="52" font-weight="700" font-family="Segoe UI, Arial, sans-serif">Ask Electrical</text>
    <text x="36" y="146" fill="#a7dff7" font-size="38" font-weight="600" font-family="Segoe UI, Arial, sans-serif">Safe. Reliable. Expert.</text>
    <rect x="36" y="184" width="260" height="10" rx="5" fill="#00d4ff" opacity="0.85"/>
    <rect x="36" y="224" width="340" height="14" rx="7" fill="#1e4255"/>
    <rect x="36" y="252" width="300" height="14" rx="7" fill="#1e4255"/>
    <rect x="36" y="280" width="250" height="14" rx="7" fill="#1e4255"/>
    <rect x="36" y="330" width="220" height="52" rx="26" fill="url(#heroGlow)"/>
    <text x="147" y="364" text-anchor="middle" fill="#0d202b" font-size="24" font-weight="700" font-family="Segoe UI, Arial, sans-serif">Get A Quote</text>
  </g>
</svg>
